<svg width="612" height="153" viewBox="0 0 612 153" fill="none" xmlns="http://www.w3.org/2000/svg">
<path d="M191.141 114.203C191.016 112.943 190.479 111.964 189.531 111.266C188.583 110.568 187.297 110.219 185.672 110.219C184.568 110.219 183.635 110.375 182.875 110.688C182.115 110.99 181.531 111.411 181.125 111.953C180.729 112.495 180.531 113.109 180.531 113.797C180.51 114.37 180.63 114.87 180.891 115.297C181.161 115.724 181.531 116.094 182 116.406C182.469 116.708 183.01 116.974 183.625 117.203C184.24 117.422 184.896 117.609 185.594 117.766L188.469 118.453C189.865 118.766 191.146 119.182 192.312 119.703C193.479 120.224 194.49 120.865 195.344 121.625C196.198 122.385 196.859 123.281 197.328 124.313C197.807 125.344 198.052 126.526 198.062 127.859C198.052 129.818 197.552 131.516 196.563 132.953C195.583 134.38 194.167 135.49 192.312 136.281C190.469 137.063 188.245 137.453 185.641 137.453C183.057 137.453 180.807 137.057 178.891 136.266C176.984 135.474 175.495 134.302 174.422 132.75C173.359 131.188 172.802 129.255 172.75 126.953H179.297C179.37 128.026 179.677 128.922 180.219 129.641C180.771 130.349 181.505 130.885 182.422 131.25C183.349 131.604 184.396 131.781 185.562 131.781C186.708 131.781 187.703 131.615 188.547 131.281C189.401 130.948 190.062 130.484 190.531 129.891C191 129.297 191.234 128.615 191.234 127.844C191.234 127.125 191.021 126.521 190.594 126.031C190.177 125.542 189.563 125.125 188.75 124.781C187.948 124.438 186.964 124.125 185.797 123.844L182.312 122.969C179.615 122.313 177.484 121.286 175.922 119.891C174.359 118.495 173.583 116.615 173.594 114.25C173.583 112.313 174.099 110.62 175.141 109.172C176.193 107.724 177.635 106.594 179.469 105.781C181.302 104.969 183.385 104.563 185.719 104.563C188.094 104.563 190.167 104.969 191.938 105.781C193.719 106.594 195.104 107.724 196.094 109.172C197.083 110.62 197.594 112.297 197.625 114.203H191.141Z" fill="#00ccff"/>
<path d="M212.012 137.469C209.554 137.469 207.439 136.948 205.668 135.906C203.908 134.854 202.554 133.396 201.606 131.531C200.668 129.667 200.2 127.521 200.2 125.094C200.2 122.635 200.673 120.479 201.621 118.625C202.58 116.76 203.939 115.307 205.7 114.266C207.46 113.214 209.554 112.688 211.981 112.688C214.075 112.688 215.908 113.068 217.481 113.828C219.054 114.589 220.298 115.656 221.215 117.031C222.132 118.406 222.637 120.021 222.731 121.875H216.45C216.272 120.677 215.804 119.714 215.043 118.984C214.293 118.245 213.309 117.875 212.09 117.875C211.059 117.875 210.158 118.156 209.387 118.719C208.627 119.271 208.033 120.078 207.606 121.141C207.179 122.203 206.965 123.49 206.965 125C206.965 126.531 207.173 127.833 207.59 128.906C208.017 129.979 208.616 130.797 209.387 131.359C210.158 131.922 211.059 132.203 212.09 132.203C212.851 132.203 213.533 132.047 214.137 131.734C214.752 131.422 215.257 130.969 215.653 130.375C216.059 129.771 216.325 129.047 216.45 128.203H222.731C222.627 130.036 222.127 131.651 221.231 133.047C220.345 134.432 219.121 135.516 217.559 136.297C215.996 137.078 214.147 137.469 212.012 137.469Z" fill="#00ccff"/>
<path d="M232.516 137.453C230.985 137.453 229.62 137.188 228.423 136.656C227.225 136.115 226.277 135.318 225.579 134.266C224.891 133.203 224.548 131.88 224.548 130.297C224.548 128.964 224.792 127.844 225.282 126.938C225.771 126.031 226.438 125.302 227.282 124.75C228.126 124.198 229.084 123.781 230.157 123.5C231.24 123.219 232.376 123.021 233.563 122.906C234.959 122.76 236.084 122.625 236.938 122.5C237.792 122.365 238.412 122.167 238.798 121.906C239.183 121.646 239.376 121.26 239.376 120.75V120.656C239.376 119.667 239.063 118.901 238.438 118.359C237.824 117.818 236.949 117.547 235.813 117.547C234.615 117.547 233.662 117.813 232.954 118.344C232.245 118.865 231.777 119.521 231.548 120.313L225.391 119.813C225.704 118.354 226.318 117.094 227.235 116.031C228.152 114.958 229.334 114.135 230.782 113.562C232.24 112.979 233.928 112.688 235.844 112.688C237.178 112.688 238.454 112.844 239.673 113.156C240.902 113.469 241.99 113.953 242.938 114.609C243.896 115.266 244.652 116.109 245.204 117.141C245.756 118.161 246.032 119.385 246.032 120.812V137H239.719V133.672H239.532C239.146 134.422 238.631 135.083 237.985 135.656C237.339 136.219 236.563 136.661 235.657 136.984C234.751 137.297 233.704 137.453 232.516 137.453ZM234.423 132.859C235.402 132.859 236.266 132.667 237.016 132.281C237.766 131.885 238.355 131.354 238.782 130.688C239.209 130.021 239.423 129.266 239.423 128.422V125.875C239.214 126.01 238.928 126.135 238.563 126.25C238.209 126.354 237.808 126.453 237.36 126.547C236.912 126.63 236.464 126.708 236.016 126.781C235.568 126.844 235.162 126.901 234.798 126.953C234.016 127.068 233.334 127.25 232.751 127.5C232.167 127.75 231.714 128.089 231.391 128.516C231.068 128.932 230.907 129.453 230.907 130.078C230.907 130.984 231.235 131.677 231.891 132.156C232.558 132.625 233.402 132.859 234.423 132.859Z" fill="#00ccff"/>
<path d="M256.532 123.125V137H249.876V113H256.22V117.234H256.501C257.032 115.839 257.923 114.734 259.173 113.922C260.423 113.099 261.938 112.688 263.72 112.688C265.386 112.688 266.839 113.052 268.079 113.781C269.319 114.51 270.282 115.552 270.97 116.906C271.657 118.25 272.001 119.854 272.001 121.719V137H265.345V122.906C265.355 121.438 264.98 120.292 264.22 119.469C263.459 118.635 262.412 118.219 261.079 118.219C260.183 118.219 259.392 118.411 258.704 118.797C258.027 119.182 257.496 119.745 257.11 120.484C256.735 121.214 256.543 122.094 256.532 123.125Z" fill="#00ccff"/>
<path d="M314.322 121C314.322 124.49 313.66 127.458 312.338 129.906C311.025 132.354 309.233 134.224 306.962 135.516C304.702 136.797 302.16 137.438 299.338 137.438C296.494 137.438 293.942 136.792 291.681 135.5C289.421 134.208 287.634 132.339 286.322 129.891C285.009 127.443 284.353 124.479 284.353 121C284.353 117.51 285.009 114.542 286.322 112.094C287.634 109.646 289.421 107.781 291.681 106.5C293.942 105.208 296.494 104.563 299.338 104.563C302.16 104.563 304.702 105.208 306.962 106.5C309.233 107.781 311.025 109.646 312.338 112.094C313.66 114.542 314.322 117.51 314.322 121ZM307.463 121C307.463 118.74 307.124 116.833 306.447 115.281C305.78 113.729 304.838 112.552 303.619 111.75C302.4 110.948 300.973 110.547 299.338 110.547C297.702 110.547 296.275 110.948 295.056 111.75C293.838 112.552 292.89 113.729 292.213 115.281C291.546 116.833 291.213 118.74 291.213 121C291.213 123.26 291.546 125.167 292.213 126.719C292.89 128.271 293.838 129.448 295.056 130.25C296.275 131.052 297.702 131.453 299.338 131.453C300.973 131.453 302.4 131.052 303.619 130.25C304.838 129.448 305.78 128.271 306.447 126.719C307.124 125.167 307.463 123.26 307.463 121Z" fill="#00ccff"/>
<path d="M317.889 137V113H324.342V117.188H324.592C325.029 115.698 325.764 114.573 326.795 113.813C327.826 113.042 329.014 112.656 330.357 112.656C330.691 112.656 331.05 112.677 331.435 112.719C331.821 112.76 332.159 112.818 332.451 112.891V118.797C332.139 118.703 331.706 118.62 331.154 118.547C330.602 118.474 330.097 118.438 329.639 118.438C328.659 118.438 327.784 118.651 327.014 119.078C326.253 119.495 325.649 120.078 325.201 120.828C324.764 121.578 324.545 122.443 324.545 123.422V137H317.889Z" fill="#00ccff"/>
<path d="M334.572 137V113H341.229V137H334.572ZM337.916 109.906C336.927 109.906 336.078 109.578 335.369 108.922C334.671 108.255 334.322 107.458 334.322 106.531C334.322 105.615 334.671 104.828 335.369 104.172C336.078 103.505 336.927 103.172 337.916 103.172C338.906 103.172 339.75 103.505 340.447 104.172C341.156 104.828 341.51 105.615 341.51 106.531C341.51 107.458 341.156 108.255 340.447 108.922C339.75 109.578 338.906 109.906 337.916 109.906Z" fill="#00ccff"/>
<path d="M356.053 146.5C353.897 146.5 352.048 146.203 350.506 145.609C348.975 145.026 347.756 144.229 346.85 143.219C345.944 142.208 345.355 141.073 345.085 139.812L351.241 138.984C351.428 139.464 351.725 139.911 352.131 140.328C352.538 140.745 353.074 141.078 353.741 141.328C354.418 141.589 355.241 141.719 356.21 141.719C357.657 141.719 358.85 141.365 359.788 140.656C360.736 139.958 361.21 138.786 361.21 137.141V132.75H360.928C360.637 133.417 360.199 134.047 359.616 134.641C359.032 135.234 358.282 135.719 357.366 136.094C356.449 136.469 355.355 136.656 354.085 136.656C352.282 136.656 350.642 136.24 349.163 135.406C347.694 134.563 346.522 133.276 345.647 131.547C344.782 129.807 344.35 127.609 344.35 124.953C344.35 122.234 344.793 119.964 345.678 118.141C346.564 116.318 347.741 114.953 349.21 114.047C350.689 113.141 352.308 112.688 354.069 112.688C355.413 112.688 356.538 112.917 357.444 113.375C358.35 113.823 359.079 114.385 359.631 115.063C360.194 115.729 360.626 116.385 360.928 117.031H361.178V113H367.788V137.234C367.788 139.276 367.288 140.984 366.288 142.359C365.288 143.734 363.902 144.766 362.131 145.453C360.371 146.151 358.345 146.5 356.053 146.5ZM356.194 131.656C357.267 131.656 358.173 131.391 358.913 130.859C359.663 130.318 360.236 129.547 360.631 128.547C361.038 127.536 361.241 126.328 361.241 124.922C361.241 123.516 361.043 122.297 360.647 121.266C360.251 120.224 359.678 119.417 358.928 118.844C358.178 118.271 357.267 117.984 356.194 117.984C355.1 117.984 354.178 118.281 353.428 118.875C352.678 119.458 352.111 120.271 351.725 121.313C351.34 122.354 351.147 123.557 351.147 124.922C351.147 126.307 351.34 127.505 351.725 128.516C352.121 129.516 352.689 130.292 353.428 130.844C354.178 131.385 355.1 131.656 356.194 131.656Z" fill="#00ccff"/>
<path d="M371.765 137V113H378.421V137H371.765ZM375.108 109.906C374.119 109.906 373.27 109.578 372.561 108.922C371.863 108.255 371.515 107.458 371.515 106.531C371.515 105.615 371.863 104.828 372.561 104.172C373.27 103.505 374.119 103.172 375.108 103.172C376.098 103.172 376.942 103.505 377.64 104.172C378.348 104.828 378.702 105.615 378.702 106.531C378.702 107.458 378.348 108.255 377.64 108.922C376.942 109.578 376.098 109.906 375.108 109.906Z" fill="#00ccff"/>
<path d="M389.089 123.125V137H382.433V113H388.777V117.234H389.058C389.589 115.839 390.48 114.734 391.73 113.922C392.98 113.099 394.495 112.688 396.277 112.688C397.943 112.688 399.396 113.052 400.636 113.781C401.876 114.51 402.839 115.552 403.527 116.906C404.214 118.25 404.558 119.854 404.558 121.719V137H397.902V122.906C397.912 121.438 397.537 120.292 396.777 119.469C396.016 118.635 394.969 118.219 393.636 118.219C392.74 118.219 391.948 118.411 391.261 118.797C390.584 119.182 390.053 119.745 389.667 120.484C389.292 121.214 389.099 122.094 389.089 123.125Z" fill="#00ccff"/>
<path d="M415.328 137.453C413.796 137.453 412.432 137.188 411.234 136.656C410.036 136.115 409.088 135.318 408.39 134.266C407.703 133.203 407.359 131.88 407.359 130.297C407.359 128.964 407.604 127.844 408.093 126.938C408.583 126.031 409.25 125.302 410.093 124.75C410.937 124.198 411.895 123.781 412.968 123.5C414.052 123.219 415.187 123.021 416.375 122.906C417.77 122.76 418.895 122.625 419.75 122.5C420.604 122.365 421.223 122.167 421.609 121.906C421.994 121.646 422.187 121.26 422.187 120.75V120.656C422.187 119.667 421.875 118.901 421.25 118.359C420.635 117.818 419.76 117.547 418.625 117.547C417.427 117.547 416.473 117.813 415.765 118.344C415.057 118.865 414.588 119.521 414.359 120.313L408.203 119.813C408.515 118.354 409.13 117.094 410.046 116.031C410.963 114.958 412.145 114.135 413.593 113.562C415.052 112.979 416.739 112.688 418.656 112.688C419.989 112.688 421.265 112.844 422.484 113.156C423.713 113.469 424.802 113.953 425.75 114.609C426.708 115.266 427.463 116.109 428.015 117.141C428.567 118.161 428.843 119.385 428.843 120.812V137H422.531V133.672H422.343C421.958 134.422 421.442 135.083 420.796 135.656C420.151 136.219 419.375 136.661 418.468 136.984C417.562 137.297 416.515 137.453 415.328 137.453ZM417.234 132.859C418.213 132.859 419.078 132.667 419.828 132.281C420.578 131.885 421.166 131.354 421.593 130.688C422.02 130.021 422.234 129.266 422.234 128.422V125.875C422.026 126.01 421.739 126.135 421.375 126.25C421.02 126.354 420.619 126.453 420.171 126.547C419.723 126.63 419.276 126.708 418.828 126.781C418.38 126.844 417.973 126.901 417.609 126.953C416.828 127.068 416.145 127.25 415.562 127.5C414.979 127.75 414.526 128.089 414.203 128.516C413.88 128.932 413.718 129.453 413.718 130.078C413.718 130.984 414.046 131.677 414.703 132.156C415.369 132.625 416.213 132.859 417.234 132.859Z" fill="#00ccff"/>
<path d="M439.344 105V137H432.687V105H439.344Z" fill="#00ccff"/>
<path d="M174.99 80.7216V7.99432H201.624C206.785 7.99432 211.058 8.84659 214.443 10.5511C217.829 12.232 220.362 14.5166 222.043 17.4048C223.724 20.2694 224.564 23.5009 224.564 27.0994C224.564 30.1297 224.008 32.6866 222.895 34.7699C221.782 36.8295 220.291 38.4867 218.421 39.7415C216.574 40.9725 214.538 41.8722 212.313 42.4403V43.1506C214.727 43.2689 217.083 44.0502 219.379 45.4943C221.7 46.9148 223.617 48.9389 225.132 51.5668C226.647 54.1946 227.405 57.3906 227.405 61.1548C227.405 64.8717 226.529 68.2098 224.777 71.169C223.049 74.1046 220.374 76.4366 216.752 78.1648C213.129 79.8693 208.501 80.7216 202.867 80.7216H174.99ZM185.963 71.3111H201.801C207.057 71.3111 210.821 70.2931 213.094 68.2571C215.367 66.2211 216.503 63.6761 216.503 60.6222C216.503 58.3258 215.923 56.2188 214.763 54.3011C213.603 52.3835 211.946 50.8565 209.791 49.7202C207.661 48.5838 205.128 48.0156 202.192 48.0156H185.963V71.3111ZM185.963 39.4574H200.665C203.127 39.4574 205.341 38.9839 207.306 38.0369C209.294 37.09 210.869 35.7642 212.029 34.0597C213.212 32.3314 213.804 30.2955 213.804 27.9517C213.804 24.9451 212.751 22.4238 210.644 20.3878C208.537 18.3518 205.305 17.3338 200.949 17.3338H185.963V39.4574Z" fill="#00ccff"/>
<path d="M252.441 81.929C248.985 81.929 245.86 81.2898 243.066 80.0114C240.273 78.7093 238.059 76.8272 236.426 74.3651C234.816 71.9029 234.011 68.8845 234.011 65.3097C234.011 62.232 234.603 59.6989 235.786 57.7102C236.97 55.7216 238.568 54.1473 240.58 52.9872C242.593 51.8272 244.842 50.9512 247.328 50.3594C249.813 49.7675 252.347 49.3177 254.927 49.0099C258.194 48.6312 260.846 48.3234 262.882 48.0867C264.918 47.8262 266.397 47.4119 267.32 46.8438C268.244 46.2756 268.705 45.3523 268.705 44.0739V43.8253C268.705 40.724 267.829 38.321 266.078 36.6165C264.349 34.9119 261.769 34.0597 258.336 34.0597C254.761 34.0597 251.944 34.8527 249.884 36.4389C247.848 38.0014 246.44 39.7415 245.659 41.6591L235.68 39.3864C236.864 36.072 238.592 33.3968 240.865 31.3608C243.161 29.3011 245.801 27.8097 248.784 26.8864C251.767 25.9394 254.903 25.4659 258.194 25.4659C260.372 25.4659 262.68 25.7263 265.119 26.2472C267.581 26.7443 269.877 27.6676 272.008 29.017C274.162 30.3665 275.926 32.2959 277.299 34.8054C278.672 37.2912 279.359 40.5227 279.359 44.5V80.7216H268.99V73.2642H268.563C267.877 74.6373 266.847 75.9867 265.474 77.3125C264.101 78.6383 262.337 79.7391 260.183 80.6151C258.028 81.491 255.448 81.929 252.441 81.929ZM254.749 73.4062C257.685 73.4062 260.195 72.8262 262.278 71.6662C264.385 70.5062 265.983 68.991 267.072 67.1207C268.185 65.2268 268.741 63.2027 268.741 61.0483V54.017C268.362 54.3958 267.628 54.7509 266.539 55.0824C265.474 55.3902 264.255 55.6624 262.882 55.8992C261.508 56.1122 260.171 56.3134 258.869 56.5028C257.567 56.6686 256.478 56.8106 255.602 56.929C253.542 57.1894 251.66 57.6274 249.955 58.2429C248.275 58.8584 246.925 59.7462 245.907 60.9062C244.913 62.0426 244.416 63.5578 244.416 65.4517C244.416 68.0795 245.386 70.0682 247.328 71.4176C249.269 72.7434 251.743 73.4062 254.749 73.4062Z" fill="#00ccff"/>
<path d="M331.375 39.4929L321.751 41.1974C321.349 39.9664 320.71 38.7945 319.834 37.6818C318.981 36.5691 317.821 35.6577 316.354 34.9474C314.886 34.2372 313.051 33.8821 310.849 33.8821C307.843 33.8821 305.333 34.5568 303.321 35.9062C301.309 37.232 300.302 38.9484 300.302 41.0554C300.302 42.8783 300.977 44.3461 302.327 45.4588C303.676 46.5715 305.854 47.483 308.861 48.1932L317.525 50.1818C322.544 51.3419 326.285 53.1293 328.747 55.544C331.209 57.9588 332.44 61.0956 332.44 64.9545C332.44 68.2216 331.493 71.1335 329.599 73.6903C327.729 76.2235 325.113 78.2121 321.751 79.6562C318.413 81.1004 314.542 81.8224 310.139 81.8224C304.031 81.8224 299.048 80.5204 295.189 77.9162C291.33 75.2884 288.962 71.5597 288.086 66.7301L298.349 65.1676C298.988 67.8428 300.302 69.867 302.291 71.2401C304.28 72.5895 306.872 73.2642 310.068 73.2642C313.548 73.2642 316.33 72.5421 318.413 71.098C320.497 69.6302 321.538 67.8428 321.538 65.7358C321.538 64.0313 320.899 62.599 319.621 61.4389C318.366 60.2789 316.436 59.4029 313.832 58.8111L304.599 56.7869C299.509 55.6269 295.745 53.7803 293.307 51.2472C290.892 48.714 289.684 45.5062 289.684 41.6236C289.684 38.4039 290.584 35.5866 292.383 33.1719C294.183 30.7571 296.668 28.875 299.841 27.5256C303.013 26.1525 306.647 25.4659 310.743 25.4659C316.638 25.4659 321.278 26.7443 324.663 29.3011C328.049 31.8343 330.286 35.2315 331.375 39.4929Z" fill="#00ccff"/>
<path d="M364.623 81.8224C359.249 81.8224 354.621 80.6742 350.738 78.3778C346.879 76.0578 343.896 72.8026 341.789 68.6122C339.706 64.3982 338.664 59.4621 338.664 53.804C338.664 48.2169 339.706 43.2926 341.789 39.0312C343.896 34.7699 346.832 31.4437 350.596 29.0526C354.384 26.6615 358.811 25.4659 363.877 25.4659C366.955 25.4659 369.938 25.9749 372.826 26.9929C375.714 28.0109 378.307 29.6089 380.603 31.7869C382.9 33.965 384.711 36.794 386.036 40.2742C387.362 43.7306 388.025 47.9328 388.025 52.8807V56.6449H344.666V48.6903H377.62C377.62 45.8968 377.052 43.4228 375.916 41.2685C374.779 39.0904 373.181 37.3741 371.122 36.1193C369.086 34.8646 366.695 34.2372 363.948 34.2372C360.965 34.2372 358.361 34.9711 356.136 36.4389C353.934 37.8831 352.23 39.777 351.022 42.1207C349.838 44.4408 349.247 46.9621 349.247 49.6847V55.8992C349.247 59.545 349.886 62.6463 351.164 65.2031C352.466 67.7599 354.277 69.7131 356.597 71.0625C358.918 72.3883 361.628 73.0511 364.73 73.0511C366.742 73.0511 368.577 72.767 370.234 72.1989C371.891 71.607 373.323 70.7311 374.531 69.571C375.738 68.411 376.661 66.9787 377.301 65.2742L387.35 67.0852C386.545 70.0445 385.101 72.6368 383.018 74.8622C380.958 77.0639 378.366 78.7803 375.241 80.0114C372.14 81.2188 368.6 81.8224 364.623 81.8224Z" fill="#00ccff"/>
<path d="M437.324 27.0994C436.946 23.7377 435.383 21.1335 432.637 19.2869C429.891 17.4167 426.434 16.4815 422.268 16.4815C419.285 16.4815 416.704 16.955 414.526 17.902C412.348 18.8253 410.655 20.1037 409.448 21.7372C408.264 23.3471 407.672 25.1818 407.672 27.2415C407.672 28.9697 408.075 30.4612 408.88 31.7159C409.708 32.9706 410.786 34.0241 412.111 34.8764C413.461 35.705 414.905 36.4034 416.444 36.9716C417.983 37.5161 419.462 37.9659 420.883 38.321L427.985 40.1676C430.305 40.7358 432.684 41.5052 435.123 42.4759C437.561 43.4465 439.822 44.7249 441.905 46.3111C443.989 47.8973 445.67 49.8622 446.948 52.206C448.25 54.5497 448.901 57.3551 448.901 60.6222C448.901 64.7415 447.836 68.3991 445.705 71.5952C443.598 74.7912 440.532 77.3125 436.508 79.1591C432.507 81.0057 427.665 81.929 421.983 81.929C416.538 81.929 411.827 81.0649 407.85 79.3366C403.873 77.6084 400.76 75.1581 398.51 71.9858C396.261 68.7898 395.019 65.0019 394.782 60.6222H405.79C406.003 63.25 406.856 65.4399 408.347 67.1918C409.862 68.92 411.792 70.2102 414.135 71.0625C416.503 71.8911 419.095 72.3054 421.912 72.3054C425.014 72.3054 427.772 71.8201 430.187 70.8494C432.625 69.8551 434.543 68.482 435.939 66.7301C437.336 64.9545 438.035 62.883 438.035 60.5156C438.035 58.3613 437.419 56.5975 436.188 55.2244C434.981 53.8513 433.335 52.715 431.252 51.8153C429.192 50.9157 426.86 50.1226 424.256 49.4361L415.662 47.0923C409.839 45.5062 405.222 43.1742 401.813 40.0966C398.428 37.0189 396.735 32.947 396.735 27.8807C396.735 23.6903 397.871 20.0327 400.144 16.9077C402.417 13.7827 405.494 11.3561 409.377 9.62784C413.26 7.87595 417.639 7 422.516 7C427.44 7 431.785 7.86411 435.549 9.59233C439.337 11.3206 442.32 13.6998 444.498 16.7301C446.676 19.7367 447.812 23.1932 447.907 27.0994H437.324Z" fill="#00ccff"/>
<path d="M481.137 81.8224C475.858 81.8224 471.312 80.6269 467.501 78.2358C463.713 75.821 460.801 72.4948 458.765 68.2571C456.729 64.0194 455.711 59.1662 455.711 53.6974C455.711 48.1577 456.753 43.2689 458.836 39.0312C460.919 34.7699 463.855 31.4437 467.643 29.0526C471.431 26.6615 475.893 25.4659 481.031 25.4659C485.174 25.4659 488.867 26.2353 492.11 27.7742C495.354 29.2893 497.97 31.42 499.958 34.1662C501.971 36.9124 503.166 40.1203 503.545 43.7898H493.211C492.643 41.233 491.341 39.0313 489.305 37.1847C487.293 35.3381 484.594 34.4148 481.208 34.4148C478.249 34.4148 475.657 35.196 473.431 36.7585C471.23 38.2974 469.513 40.4991 468.282 43.3636C467.051 46.2045 466.436 49.5663 466.436 53.4489C466.436 57.4261 467.039 60.8589 468.247 63.7472C469.454 66.6354 471.159 68.8726 473.36 70.4588C475.586 72.045 478.202 72.8381 481.208 72.8381C483.221 72.8381 485.044 72.4711 486.677 71.7372C488.334 70.9796 489.719 69.9025 490.832 68.5057C491.968 67.1089 492.761 65.428 493.211 63.4631H503.545C503.166 66.9905 502.018 70.1392 500.1 72.9091C498.183 75.679 495.614 77.857 492.394 79.4432C489.198 81.0294 485.446 81.8224 481.137 81.8224Z" fill="#00ccff"/>
<path d="M527.773 81.929C524.317 81.929 521.192 81.2898 518.398 80.0114C515.605 78.7093 513.391 76.8272 511.758 74.3651C510.148 71.9029 509.343 68.8845 509.343 65.3097C509.343 62.232 509.935 59.6989 511.118 57.7102C512.302 55.7216 513.9 54.1473 515.912 52.9872C517.925 51.8272 520.174 50.9512 522.66 50.3594C525.145 49.7675 527.679 49.3177 530.259 49.0099C533.526 48.6312 536.178 48.3234 538.214 48.0867C540.25 47.8262 541.729 47.4119 542.653 46.8438C543.576 46.2756 544.037 45.3523 544.037 44.0739V43.8253C544.037 40.724 543.162 38.321 541.41 36.6165C539.681 34.9119 537.101 34.0597 533.668 34.0597C530.093 34.0597 527.276 34.8527 525.216 36.4389C523.18 38.0014 521.772 39.7415 520.991 41.6591L511.012 39.3864C512.196 36.072 513.924 33.3968 516.197 31.3608C518.493 29.3011 521.133 27.8097 524.116 26.8864C527.099 25.9394 530.235 25.4659 533.526 25.4659C535.704 25.4659 538.012 25.7263 540.451 26.2472C542.913 26.7443 545.209 27.6676 547.34 29.017C549.494 30.3665 551.258 32.2959 552.631 34.8054C554.004 37.2912 554.691 40.5227 554.691 44.5V80.7216H544.322V73.2642H543.895C543.209 74.6373 542.179 75.9867 540.806 77.3125C539.433 78.6383 537.669 79.7391 535.515 80.6151C533.36 81.491 530.78 81.929 527.773 81.929ZM530.082 73.4062C533.017 73.4062 535.527 72.8262 537.61 71.6662C539.717 70.5062 541.315 68.991 542.404 67.1207C543.517 65.2268 544.073 63.2027 544.073 61.0483V54.017C543.694 54.3958 542.96 54.7509 541.871 55.0824C540.806 55.3902 539.587 55.6624 538.214 55.8992C536.84 56.1122 535.503 56.3134 534.201 56.5028C532.899 56.6686 531.81 56.8106 530.934 56.929C528.874 57.1894 526.992 57.6274 525.287 58.2429C523.607 58.8584 522.257 59.7462 521.239 60.9062C520.245 62.0426 519.748 63.5578 519.748 65.4517C519.748 68.0795 520.718 70.0682 522.66 71.4176C524.601 72.7434 527.075 73.4062 530.082 73.4062Z" fill="#00ccff"/>
<path d="M576.451 48.3352V80.7216H565.833V26.1761H576.025V35.054H576.7C577.954 32.1657 579.919 29.8456 582.595 28.0938C585.293 26.3419 588.691 25.4659 592.786 25.4659C596.503 25.4659 599.758 26.2472 602.552 27.8097C605.346 29.3485 607.512 31.6449 609.051 34.6989C610.589 37.7528 611.359 41.5289 611.359 46.027V80.7216H600.741V47.3054C600.741 43.3518 599.711 40.2623 597.651 38.0369C595.592 35.7879 592.763 34.6634 589.164 34.6634C586.702 34.6634 584.512 35.196 582.595 36.2614C580.701 37.3267 579.197 38.8892 578.085 40.9489C576.996 42.9848 576.451 45.447 576.451 48.3352Z" fill="#00ccff"/>
<path d="M31.856 72.722C31.8562 71.8665 32.0253 71.0195 32.3538 70.2295C32.6822 69.4396 33.1634 68.7223 33.7698 68.1188C34.3762 67.5154 35.0958 67.0376 35.8873 66.713C36.6789 66.3884 37.5267 66.2234 38.3822 66.2274L49.2024 66.2626C50.9276 66.2626 52.5821 66.948 53.802 68.1678C55.0218 69.3877 55.7072 71.0422 55.7072 72.7674V113.68C56.9252 113.319 58.4897 112.933 60.2015 112.53C61.3906 112.251 62.4504 111.578 63.2089 110.621C63.9674 109.663 64.38 108.478 64.3798 107.256V56.5055C64.3798 54.7802 65.065 53.1256 66.2848 51.9055C67.5047 50.6855 69.1592 49.9999 70.8845 49.9995H81.7261C83.4514 49.9999 85.1059 50.6855 86.3258 51.9055C87.5456 53.1256 88.2309 54.7802 88.2309 56.5055V103.607C88.2309 103.607 90.9454 102.509 93.5894 101.393C94.5716 100.977 95.4097 100.282 95.9993 99.3932C96.5889 98.5045 96.9038 97.462 96.9047 96.3955V40.2437C96.9047 38.5187 97.5898 36.8644 98.8094 35.6446C100.029 34.4247 101.683 33.7393 103.408 33.7389H114.25C115.975 33.7389 117.63 34.4243 118.849 35.6441C120.069 36.864 120.755 38.5185 120.755 40.2437V86.4835C130.154 79.6714 139.679 71.4788 147.238 61.6272C148.335 60.1972 149.061 58.5181 149.35 56.7396C149.64 54.9611 149.485 53.1384 148.9 51.4343C145.401 41.367 139.839 32.141 132.57 24.3467C125.301 16.5524 116.484 10.3614 106.685 6.16992C96.886 1.97846 86.3197 -0.121165 75.6625 0.00539972C65.0053 0.131964 54.4918 2.48194 44.795 6.90493C35.0981 11.3279 26.4313 17.7265 19.3493 25.6913C12.2673 33.656 6.92599 43.0115 3.66718 53.159C0.408382 63.3066 -0.696134 74.0226 0.424309 84.6215C1.54475 95.2205 4.86549 105.469 10.174 114.711C11.0988 116.305 12.4592 117.602 14.0956 118.45C15.7321 119.298 17.5764 119.661 19.4121 119.497C21.4628 119.317 24.0161 119.061 27.0518 118.705C28.3733 118.555 29.5934 117.924 30.4796 116.932C31.3658 115.941 31.8562 114.658 31.8573 113.328V72.722" fill="#00ccff"/>
<path d="M31.6191 138.343C43.047 146.657 56.5522 151.647 70.6404 152.761C84.7285 153.876 98.8504 151.071 111.443 144.658C124.036 138.244 134.61 128.471 141.993 116.421C149.376 104.371 153.282 90.5134 153.278 76.3813C153.278 74.6178 153.196 72.8732 153.079 71.1386C125.091 112.88 73.415 132.395 31.6217 138.336" fill="#C0C9DB"/>
</svg>
